<svg width="317" height="48" viewBox="0 0 317 48" fill="none" xmlns="http://www.w3.org/2000/svg">
<path d="M63.0144 10.2593L48.3489 42.7443M63.2718 10.2593L77.9373 42.7443" stroke="#FFAB91" stroke-width="2"/>
<path d="M71.7534 3.24026L34.9091 33.819C31.3067 36.8088 33.4209 42.6665 38.1024 42.6665H112.072C116.762 42.6665 118.871 36.7893 115.251 33.8071L78.1255 3.22838C76.2736 1.7031 73.5995 1.70809 71.7534 3.24026Z" stroke="#B2FEF7" stroke-width="2"/>
<path d="M47.9946 3.2405L11.1503 33.8192C7.54795 36.809 9.6621 42.6667 14.3436 42.6667H88.3129C93.0036 42.6667 95.1124 36.7896 91.4918 33.8073L54.3667 3.22862C52.5149 1.70335 49.8407 1.70834 47.9946 3.2405Z" stroke="#4F9A94" stroke-width="2"/>
<path d="M134.264 40.5188C133.944 40.5188 133.664 40.4088 133.424 40.1888C133.204 39.9488 133.094 39.6688 133.094 39.3488V18.2588C133.094 17.9188 133.204 17.6388 133.424 17.4188C133.664 17.1988 133.944 17.0888 134.264 17.0888C134.744 17.0888 135.094 17.2888 135.314 17.6888L144.914 36.7688L154.334 17.6888C154.574 17.2888 154.924 17.0888 155.384 17.0888C155.704 17.0888 155.974 17.1988 156.194 17.4188C156.414 17.6388 156.524 17.9188 156.524 18.2588V39.3488C156.524 39.6688 156.414 39.9488 156.194 40.1888C155.974 40.4088 155.704 40.5188 155.384 40.5188C155.044 40.5188 154.754 40.4088 154.514 40.1888C154.294 39.9488 154.184 39.6688 154.184 39.3488V22.3688L145.844 39.4088C145.624 39.7888 145.284 39.9788 144.824 39.9788C144.324 39.9788 143.964 39.7388 143.744 39.2588L135.434 22.6388V39.3488C135.434 39.6688 135.314 39.9488 135.074 40.1888C134.854 40.4088 134.584 40.5188 134.264 40.5188ZM169.827 40.6688C168.207 40.6688 166.767 40.3188 165.507 39.6188C164.267 38.8988 163.287 37.9088 162.567 36.6488C161.867 35.3888 161.517 33.9488 161.517 32.3288C161.517 30.6888 161.847 29.2488 162.507 28.0088C163.187 26.7488 164.117 25.7588 165.297 25.0388C166.477 24.3188 167.837 23.9588 169.377 23.9588C170.897 23.9588 172.217 24.3088 173.337 25.0088C174.477 25.6888 175.357 26.6388 175.977 27.8588C176.597 29.0788 176.907 30.4688 176.907 32.0288C176.907 32.3488 176.807 32.6088 176.607 32.8088C176.407 32.9888 176.147 33.0788 175.827 33.0788H163.707C163.827 34.1588 164.157 35.1188 164.697 35.9588C165.237 36.7788 165.947 37.4288 166.827 37.9088C167.707 38.3688 168.707 38.5988 169.827 38.5988C170.547 38.5988 171.267 38.4788 171.987 38.2388C172.727 37.9788 173.317 37.6588 173.757 37.2788C173.977 37.0988 174.227 37.0088 174.507 37.0088C174.787 36.9888 175.027 37.0588 175.227 37.2188C175.487 37.4588 175.617 37.7188 175.617 37.9988C175.637 38.2788 175.527 38.5188 175.287 38.7188C174.627 39.2788 173.787 39.7488 172.767 40.1288C171.747 40.4888 170.767 40.6688 169.827 40.6688ZM169.377 26.0288C167.837 26.0288 166.567 26.5088 165.567 27.4688C164.567 28.4088 163.967 29.6388 163.767 31.1588H174.747C174.587 29.6388 174.027 28.4088 173.067 27.4688C172.127 26.5088 170.897 26.0288 169.377 26.0288ZM187.819 40.6688C186.199 40.6688 184.759 40.3188 183.499 39.6188C182.259 38.8988 181.279 37.9088 180.559 36.6488C179.859 35.3888 179.509 33.9488 179.509 32.3288C179.509 30.6888 179.839 29.2488 180.499 28.0088C181.179 26.7488 182.109 25.7588 183.289 25.0388C184.469 24.3188 185.829 23.9588 187.369 23.9588C188.889 23.9588 190.209 24.3088 191.329 25.0088C192.469 25.6888 193.349 26.6388 193.969 27.8588C194.589 29.0788 194.899 30.4688 194.899 32.0288C194.899 32.3488 194.799 32.6088 194.599 32.8088C194.399 32.9888 194.139 33.0788 193.819 33.0788H181.699C181.819 34.1588 182.149 35.1188 182.689 35.9588C183.229 36.7788 183.939 37.4288 184.819 37.9088C185.699 38.3688 186.699 38.5988 187.819 38.5988C188.539 38.5988 189.259 38.4788 189.979 38.2388C190.719 37.9788 191.309 37.6588 191.749 37.2788C191.969 37.0988 192.219 37.0088 192.499 37.0088C192.779 36.9888 193.019 37.0588 193.219 37.2188C193.479 37.4588 193.609 37.7188 193.609 37.9988C193.629 38.2788 193.519 38.5188 193.279 38.7188C192.619 39.2788 191.779 39.7488 190.759 40.1288C189.739 40.4888 188.759 40.6688 187.819 40.6688ZM187.369 26.0288C185.829 26.0288 184.559 26.5088 183.559 27.4688C182.559 28.4088 181.959 29.6388 181.759 31.1588H192.739C192.579 29.6388 192.019 28.4088 191.059 27.4688C190.119 26.5088 188.889 26.0288 187.369 26.0288ZM205.377 40.5188C204.317 40.5188 203.367 40.2688 202.527 39.7688C201.707 39.2688 201.057 38.5888 200.577 37.7288C200.097 36.8488 199.857 35.8488 199.857 34.7288V26.7188H197.907C197.607 26.7188 197.357 26.6288 197.157 26.4488C196.957 26.2488 196.857 26.0088 196.857 25.7288C196.857 25.4288 196.957 25.1888 197.157 25.0088C197.357 24.8088 197.607 24.7088 197.907 24.7088H199.857V20.0588C199.857 19.7188 199.957 19.4388 200.157 19.2188C200.377 18.9988 200.657 18.8888 200.997 18.8888C201.337 18.8888 201.617 18.9988 201.837 19.2188C202.057 19.4388 202.167 19.7188 202.167 20.0588V24.7088H205.557C205.857 24.7088 206.107 24.8088 206.307 25.0088C206.507 25.1888 206.607 25.4288 206.607 25.7288C206.607 26.0088 206.507 26.2488 206.307 26.4488C206.107 26.6288 205.857 26.7188 205.557 26.7188H202.167V34.7288C202.167 35.7488 202.467 36.5888 203.067 37.2488C203.667 37.8888 204.437 38.2088 205.377 38.2088H206.187C206.507 38.2088 206.767 38.3188 206.967 38.5388C207.167 38.7588 207.267 39.0388 207.267 39.3788C207.267 39.7188 207.147 39.9988 206.907 40.2188C206.667 40.4188 206.367 40.5188 206.007 40.5188H205.377ZM212.797 40.5188C212.417 40.5188 212.097 40.4188 211.837 40.2188C211.597 39.9988 211.477 39.7088 211.477 39.3488V18.2588C211.477 17.9188 211.587 17.6388 211.807 17.4188C212.027 17.1988 212.307 17.0888 212.647 17.0888H219.937C221.137 17.0888 222.217 17.3488 223.177 17.8688C224.157 18.3688 224.927 19.0588 225.487 19.9388C226.067 20.8188 226.357 21.8388 226.357 22.9988C226.357 24.0788 226.067 25.0388 225.487 25.8788C224.907 26.7188 224.147 27.3588 223.207 27.7988C224.547 28.1588 225.627 28.8388 226.447 29.8388C227.267 30.8188 227.677 32.0688 227.677 33.5888C227.677 34.9488 227.367 36.1488 226.747 37.1888C226.127 38.2288 225.267 39.0488 224.167 39.6488C223.087 40.2288 221.847 40.5188 220.447 40.5188H212.797ZM213.817 26.8688H219.937C221.137 26.8688 222.127 26.5288 222.907 25.8488C223.687 25.1688 224.077 24.2188 224.077 22.9988C224.077 21.7988 223.687 20.8888 222.907 20.2688C222.127 19.6488 221.137 19.3388 219.937 19.3388H213.817V26.8688ZM213.817 38.2688H220.447C221.887 38.2688 223.067 37.8488 223.987 37.0088C224.907 36.1688 225.367 35.0288 225.367 33.5888C225.367 32.2288 224.907 31.1488 223.987 30.3488C223.067 29.5288 221.887 29.1188 220.447 29.1188H213.817V38.2688ZM235.006 47.6588C234.846 47.6588 234.666 47.6188 234.466 47.5388C233.786 47.2388 233.596 46.7588 233.896 46.0988L236.896 39.5288L236.866 39.4988L230.176 25.6388C230.036 25.3388 230.016 25.0588 230.116 24.7988C230.216 24.5388 230.416 24.3388 230.716 24.1988C231.376 23.8988 231.856 24.0688 232.156 24.7088L238.006 37.0388L243.586 24.7388C243.886 24.0988 244.366 23.9188 245.026 24.1988C245.706 24.4788 245.896 24.9488 245.596 25.6088L235.876 46.9688C235.676 47.4288 235.386 47.6588 235.006 47.6588ZM255.192 40.5188C254.132 40.5188 253.182 40.2688 252.342 39.7688C251.522 39.2688 250.872 38.5888 250.392 37.7288C249.912 36.8488 249.672 35.8488 249.672 34.7288V26.7188H247.722C247.422 26.7188 247.172 26.6288 246.972 26.4488C246.772 26.2488 246.672 26.0088 246.672 25.7288C246.672 25.4288 246.772 25.1888 246.972 25.0088C247.172 24.8088 247.422 24.7088 247.722 24.7088H249.672V20.0588C249.672 19.7188 249.772 19.4388 249.972 19.2188C250.192 18.9988 250.472 18.8888 250.812 18.8888C251.152 18.8888 251.432 18.9988 251.652 19.2188C251.872 19.4388 251.982 19.7188 251.982 20.0588V24.7088H255.372C255.672 24.7088 255.922 24.8088 256.122 25.0088C256.322 25.1888 256.422 25.4288 256.422 25.7288C256.422 26.0088 256.322 26.2488 256.122 26.4488C255.922 26.6288 255.672 26.7188 255.372 26.7188H251.982V34.7288C251.982 35.7488 252.282 36.5888 252.882 37.2488C253.482 37.8888 254.252 38.2088 255.192 38.2088H256.002C256.322 38.2088 256.582 38.3188 256.782 38.5388C256.982 38.7588 257.082 39.0388 257.082 39.3788C257.082 39.7188 256.962 39.9988 256.722 40.2188C256.482 40.4188 256.182 40.5188 255.822 40.5188H255.192ZM268.432 40.6688C266.812 40.6688 265.372 40.3188 264.112 39.6188C262.872 38.8988 261.892 37.9088 261.172 36.6488C260.472 35.3888 260.122 33.9488 260.122 32.3288C260.122 30.6888 260.452 29.2488 261.112 28.0088C261.792 26.7488 262.722 25.7588 263.902 25.0388C265.082 24.3188 266.442 23.9588 267.982 23.9588C269.502 23.9588 270.822 24.3088 271.942 25.0088C273.082 25.6888 273.962 26.6388 274.582 27.8588C275.202 29.0788 275.512 30.4688 275.512 32.0288C275.512 32.3488 275.412 32.6088 275.212 32.8088C275.012 32.9888 274.752 33.0788 274.432 33.0788H262.312C262.432 34.1588 262.762 35.1188 263.302 35.9588C263.842 36.7788 264.552 37.4288 265.432 37.9088C266.312 38.3688 267.312 38.5988 268.432 38.5988C269.152 38.5988 269.872 38.4788 270.592 38.2388C271.332 37.9788 271.922 37.6588 272.362 37.2788C272.582 37.0988 272.832 37.0088 273.112 37.0088C273.392 36.9888 273.632 37.0588 273.832 37.2188C274.092 37.4588 274.222 37.7188 274.222 37.9988C274.242 38.2788 274.132 38.5188 273.892 38.7188C273.232 39.2788 272.392 39.7488 271.372 40.1288C270.352 40.4888 269.372 40.6688 268.432 40.6688ZM267.982 26.0288C266.442 26.0288 265.172 26.5088 264.172 27.4688C263.172 28.4088 262.572 29.6388 262.372 31.1588H273.352C273.192 29.6388 272.632 28.4088 271.672 27.4688C270.732 26.5088 269.502 26.0288 267.982 26.0288Z" fill="#B2FEF7"/>
</svg>
